# xmcd
#
# Track frame offsets:
#	150
#	16195
#	29485
#	45133
#	61455
#	76865
#	90289
#	103100
#	117447
#	134239
#
# Disc length: 1996 seconds
#
# Revision: 1
# Processed by: cddbd v1.5.2PL0 Copyright (c) Steve Scherf et al.
# Submitted via: audiograbber 1.82.01
#
DISCID=7807ca0a
DTITLE=Tim Aaron - Read My Heart
DYEAR=2005
DGENRE=Country
TTITLE0=Read My Heart
TTITLE1=Rent A Husband
TTITLE2=Accomplishments Made
TTITLE3=What's Been Missing
TTITLE4=Seventeenth Summer
TTITLE5=Haunted
TTITLE6=Honk If You Honky Tonk
TTITLE7=Justified
TTITLE8=All I Wanna Do
TTITLE9=In Your Shoes
EXTD=
EXTT0=
EXTT1=
EXTT2=
EXTT3=
EXTT4=
EXTT5=
EXTT6=
EXTT7=
EXTT8=
EXTT9=
PLAYORDER=
